<svg xmlns="http://www.w3.org/2000/svg" viewBox="0 0 64 64" fill="none" role="img" aria-label="NexusSOC">
  <defs>
    <linearGradient id="nx" x1="6" y1="6" x2="58" y2="58" gradientUnits="userSpaceOnUse">
      <stop offset="0%" stop-color="#00d4ff"/>
      <stop offset="100%" stop-color="#7c6af7"/>
    </linearGradient>
  </defs>
  <path d="M32 6 L54 18 L54 42 L32 58 L10 42 L10 18 Z"
        stroke="url(#nx)" stroke-width="3" stroke-linejoin="round"/>
  <g stroke="url(#nx)" stroke-width="1.5" stroke-linecap="round" opacity="0.8">
    <line x1="32" y1="32" x2="32" y2="18"/>
    <line x1="32" y1="32" x2="44" y2="25"/>
    <line x1="32" y1="32" x2="44" y2="39"/>
    <line x1="32" y1="32" x2="32" y2="46"/>
    <line x1="32" y1="32" x2="20" y2="39"/>
    <line x1="32" y1="32" x2="20" y2="25"/>
  </g>
  <g fill="url(#nx)">
    <circle cx="32" cy="18" r="2.4"/>
    <circle cx="44" cy="25" r="2.4"/>
    <circle cx="44" cy="39" r="2.4"/>
    <circle cx="32" cy="46" r="2.4"/>
    <circle cx="20" cy="39" r="2.4"/>
    <circle cx="20" cy="25" r="2.4"/>
  </g>
  <circle cx="32" cy="32" r="4" fill="url(#nx)"/>
</svg>
