<svg xmlns="http://www.w3.org/2000/svg" viewBox="0 0 360 80" fill="none" role="img" aria-label="NexusSOC">
  <defs>
    <linearGradient id="nx" x1="6" y1="6" x2="58" y2="58" gradientUnits="userSpaceOnUse">
      <stop offset="0%" stop-color="#0099cc"/>
      <stop offset="100%" stop-color="#7c6af7"/>
    </linearGradient>
  </defs>

  <!-- mark -->
  <g transform="translate(8 8)">
    <path d="M32 6 L54 18 L54 42 L32 58 L10 42 L10 18 Z"
          stroke="url(#nx)" stroke-width="2.6" stroke-linejoin="round"/>
    <g stroke="url(#nx)" stroke-width="1.3" stroke-linecap="round" opacity="0.75">
      <line x1="32" y1="32" x2="32" y2="18"/>
      <line x1="32" y1="32" x2="44" y2="25"/>
      <line x1="32" y1="32" x2="44" y2="39"/>
      <line x1="32" y1="32" x2="32" y2="46"/>
      <line x1="32" y1="32" x2="20" y2="39"/>
      <line x1="32" y1="32" x2="20" y2="25"/>
    </g>
    <g fill="url(#nx)">
      <circle cx="32" cy="18" r="2.2"/>
      <circle cx="44" cy="25" r="2.2"/>
      <circle cx="44" cy="39" r="2.2"/>
      <circle cx="32" cy="46" r="2.2"/>
      <circle cx="20" cy="39" r="2.2"/>
      <circle cx="20" cy="25" r="2.2"/>
    </g>
    <circle cx="32" cy="32" r="3.6" fill="url(#nx)"/>
  </g>

  <!-- wordmark — fixed dark for light backgrounds -->
  <text x="92" y="46"
        font-family="ui-sans-serif, system-ui, -apple-system, 'Segoe UI', Helvetica, Arial, sans-serif"
        font-size="30" font-weight="700"
        fill="#1a1c2e" letter-spacing="-0.5">Nexus<tspan fill="url(#nx)">SOC</tspan></text>
  <text x="93" y="63"
        font-family="ui-monospace, 'SF Mono', Menlo, 'Cascadia Code', monospace"
        font-size="9" fill="#1a1c2e" opacity="0.55" letter-spacing="2">AI · SOC ANALYST</text>
</svg>
